PathFileType	4	(X/Y/Z)	E:\Qualisys_Data\Carbon_Farble_Plate\Data\Amateur_Runner\S14\T2\S14T2V12_c3d.trc
DataRate	CameraRate	NumFrames	NumMarkers	Units	OrigDataRate	OrigDataStartFrame	OrigNumFrames
200.000000	200.000000	5	39	mm	200.000000	162	325
Frame#	Time	LSHO			RSHO			LICST			RICST			LASIS			LHEEL			RASIS			LTROC			RTROC			SACR			LTH1			LSK4			LTH2			LTH3			RHM5			LSK2			LTH4			RTH1			LTOE			RTH2			RTH3			RTH4			LLEP			RLEP			LSK1			LSK3			RSK1			LHM5			RSK2			LFT1			RSK3			RSK4			LLME			RLME			RTOE			RHEEL			RFT1			RFT2			LFT2			
		X1	Y1	Z1	X2	Y2	Z2	X3	Y3	Z3	X4	Y4	Z4	X5	Y5	Z5	X6	Y6	Z6	X7	Y7	Z7	X8	Y8	Z8	X9	Y9	Z9	X10	Y10	Z10	X11	Y11	Z11	X12	Y12	Z12	X13	Y13	Z13	X14	Y14	Z14	X15	Y15	Z15	X16	Y16	Z16	X17	Y17	Z17	X18	Y18	Z18	X19	Y19	Z19	X20	Y20	Z20	X21	Y21	Z21	X22	Y22	Z22	X23	Y23	Z23	X24	Y24	Z24	X25	Y25	Z25	X26	Y26	Z26	X27	Y27	Z27	X28	Y28	Z28	X29	Y29	Z29	X30	Y30	Z30	X31	Y31	Z31	X32	Y32	Z32	X33	Y33	Z33	X34	Y34	Z34	X35	Y35	Z35	X36	Y36	Z36	X37	Y37	Z37	X38	Y38	Z38	X39	Y39	Z39	

163	0.81	-17.76126861572266	1462.869018554688	-487.9526977539062	-95.91078186035156	1467.408813476562	-202.2728729248047	-87.45282745361328	1013.986572265625	-479.7816162109375	-67.68693542480469	1022.677551269531	-204.951904296875	-49.23703384399414	961.9588012695312	-457.4656066894531	-636.3867797851562	409.5055847167969	-366.3131713867188	-38.75151062011719	981.7518920898438	-226.5240325927734	-197.5749664306641	907.7308959960938	-494.8603515625	-163.2600555419922	895.3591918945312	-164.4907379150391	-212.0501861572266	1012.581481933594	-380.6802978515625	-196.6007995605469	676.13134765625	-501.8135070800781	-483.0536804199219	474.9636840820312	-450.5843505859375	-268.7470092773438	697.5200805664062	-472.1262512207031	-216.6071014404297	579.2562866210938	-483.9176940917969	248.7650604248047	137.7732849121094	-177.9206085205078	-396.8397216796875	520.9898681640625	-472.5712890625	-290.6994018554688	602.3687744140625	-459.6502990722656	22.55710601806641	712.6885375976562	-168.61181640625	-655.8786010742188	150.7885894775391	-392.1902465820312	-52.11357879638672	687.1627807617188	-154.6099700927734	52.57674789428711	622.0913696289062	-201.8583374023438	-24.02018356323242	592.4075317382812	-179.7532501220703	-286.4288940429688	533.0492553710938	-475.8943481445312	25.18275451660156	535.5349731445312	-190.1686248779297	-358.2439880371094	447.6741333007812	-474.6884460449219	-447.8719177246094	401.4898681640625	-458.1388549804688	77.67644500732422	426.258544921875	-185.3240051269531	-683.5394897460938	219.4007568359375	-448.1369323730469	-3.885124683380127	401.1834106445312	-188.7472839355469	-658.6983642578125	396.6491088867188	-339.4259338378906	101.9270248413086	325.74853515625	-197.1910705566406	24.86244010925293	309.5256042480469	-199.5067596435547	-619.070556640625	358.3906860351562	-432.6075744628906	112.7815475463867	144.3871765136719	-216.3219146728516	315.4999084472656	195.0829925537109	-226.6909942626953	78.00608825683594	95.13091278076172	-276.930419921875	108.2286376953125	78.35111999511719	-304.4786071777344	89.77639770507812	67.53153228759766	-252.5398559570312	-670.3860473632812	405.7242431640625	-392.9794921875
164	0.815	-1.805823445320129	1459.385864257812	-487.0625	-79.55572509765625	1463.676391601562	-201.5159301757812	-71.62139129638672	1010.9716796875	-479.668701171875	-51.50611114501953	1019.658508300781	-204.7673645019531	-32.93191528320312	959.0621948242188	-457.4087219238281	-617.5336303710938	412.8318481445312	-365.7040405273438	-22.4929256439209	978.451171875	-226.4193267822266	-181.0340270996094	904.0450439453124	-494.8835754394531	-146.5743408203125	891.7431030273438	-164.2476959228516	-195.9369506835938	1008.527038574219	-379.4909057617188	-177.8544616699219	672.5962524414062	-502.2595520019531	-463.3045959472656	474.709228515625	-451.6054077148438	-250.197998046875	693.0690307617188	-472.21533203125	-196.6261291503906	575.37939453125	-485.3014526367188	264.6285705566406	134.5177917480469	-179.2682952880859	-376.4765319824219	518.5838623046875	-473.7889404296875	-271.2410583496094	597.69482421875	-460.4950256347656	39.64028549194336	709.8056030273438	-168.4278411865234	-642.2889404296875	154.8193969726562	-391.6259765625	-34.87797546386719	684.2401123046875	-155.0526123046875	69.89225769042969	619.4640502929688	-202.0133209228516	-6.684326648712158	589.7805786132812	-179.9898986816406	-265.9447631835938	528.6912231445312	-477.5382995605469	42.36814498901367	532.9463500976562	-190.2407379150391	-339.1360168457031	444.4996337890625	-475.4572143554688	-429.5875244140625	400.5213317871094	-458.48388671875	94.56993865966795	422.8258666992188	-185.6141357421875	-669.1355590820312	224.1748504638672	-447.764404296875	12.57768630981445	398.2543640136719	-188.6253509521484	-639.7992553710938	400.7913208007812	-338.2332458496094	118.2741851806641	322.306884765625	-197.3342895507812	40.93465805053711	306.2135314941406	-199.3352813720703	-602.1316528320312	361.0680236816406	-432.3397827148438	128.1516418457031	140.4859161376953	-216.7099456787109	330.1861877441406	192.1540679931641	-228.7423706054688	92.6234130859375	91.333740234375	-276.4063415527344	122.8375473022461	74.59534454345703	-304.4740295410156	104.8857116699219	63.6016731262207	-252.3156585693359	-651.843994140625	410.4452209472656	-392.2500915527344
165	0.82	14.50848388671875	1455.86376953125	-486.2187194824219	-63.4761962890625	1459.534790039062	-200.1561889648438	-55.51282501220703	1007.614562988281	-479.9187622070312	-35.10932540893555	1015.97998046875	-204.544921875	-16.6592960357666	955.8760375976562	-457.0694885253906	-598.0770874023438	414.9986877441406	-365.1218566894531	-5.52576208114624	975.3869018554688	-225.7192993164062	-164.7170104980469	899.8525390625	-494.7800903320312	-129.27685546875	888.2708740234375	-163.8133850097656	-180.1732635498047	1004.494140625	-378.7784423828125	-159.1862487792969	668.246826171875	-502.7466735839844	-443.2174377441406	473.7227478027344	-453.4464111328125	-231.424560546875	688.162841796875	-472.8817443847656	-176.9098510742188	570.8613891601562	-486.5379943847656	279.6251525878906	130.4594573974609	-180.1807556152344	-355.8519592285156	516.0905151367188	-475.1485595703125	-251.6018829345703	592.1174926757812	-461.0382080078125	56.96943283081055	707.1779174804688	-168.5555419921875	-628.3961791992188	158.7393646240234	-391.2215576171875	-17.49810600280762	681.8098754882812	-155.9872894287109	87.47196960449219	616.9246215820312	-201.9917449951172	10.80806446075439	587.3277587890625	-180.3144989013672	-245.4344787597656	524.145751953125	-478.9545288085938	59.40290451049805	529.9573364257812	-190.2135925292969	-319.6773376464844	441.1990356445312	-476.6144409179688	-411.2696228027344	399.4139099121094	-459.5094909667969	111.0762634277344	418.6940612792969	-185.7991180419922	-654.1143188476562	228.3896179199219	-446.824951171875	28.87481307983398	395.287841796875	-188.4816284179688	-620.734375	404.8236083984375	-337.7530517578125	134.1313781738281	318.2978515625	-197.3647155761719	56.53765869140625	303.0745849609375	-199.1823272705078	-584.150146484375	363.9641418457031	-431.4174499511719	142.6891479492188	136.7957458496094	-216.5613250732422	345.1142272949219	187.5566558837891	-230.6861267089844	106.7837142944336	87.25141143798828	-275.6188049316406	136.4472503662109	70.54825592041016	-304.4342956542969	119.3516464233398	59.51194381713867	-251.4345245361328	-632.76611328125	414.6227722167969	-391.9688720703125
166	0.825	30.28025054931641	1452.096801757812	-485.4370727539062	-47.18951034545898	1455.368286132812	-199.28076171875	-39.77055358886719	1003.953308105469	-479.8997192382812	-18.55077934265137	1012.857543945312	-203.6879119873047	-0.8662011623382568	952.5164184570312	-457.0451965332031	-578.6627807617188	418.1212158203125	-364.6398620605469	10.6308765411377	972.039794921875	-225.3855590820312	-148.1025238037109	895.3364868164062	-494.4446411132812	-112.9961853027344	884.600341796875	-164.3538360595703	-164.2173614501953	1000.540771484375	-377.8463745117188	-140.2532653808594	664.019287109375	-503.400390625	-423.6546936035156	472.8907775878906	-453.9893798828125	-212.5423736572266	682.9465942382812	-472.7513122558594	-156.9841156005859	566.1902465820312	-487.8992309570312	294.0068359375	125.8724212646484	-181.7875213623047	-334.8236083984375	513.1494140625	-476.419677734375	-231.5192565917969	586.6170654296875	-462.0968933105469	74.81370544433594	703.9306640625	-168.5059661865234	-613.7496337890625	162.3317718505859	-390.2559509277344	-0.0750001519918441	678.9328002929688	-156.2729644775391	105.2324295043945	613.82275390625	-202.4196319580078	28.28877449035645	584.1683959960938	-181.2510223388672	-224.6285858154297	519.68896484375	-480.6605529785156	76.71397399902344	527.1370239257812	-190.3551940917969	-300.7201843261719	437.6891174316406	-477.6398315429688	-392.3823852539062	398.0343322753906	-459.6334533691406	127.7949447631836	414.5270690917969	-186.4155578613281	-639.032958984375	232.5400848388672	-446.5478515625	45.22327041625977	391.9368591308594	-188.4248504638672	-601.6655883789062	407.8320922851562	-337.5286560058594	149.4300079345703	313.8603515625	-197.8950653076172	71.89952850341797	299.7211608886719	-198.9316711425781	-566.4602661132812	366.5706176757812	-430.9757690429688	156.8138885498047	132.5945434570312	-216.8163146972656	358.9201049804688	182.8350372314453	-233.6281127929688	119.8559265136719	82.77791595458984	-275.5280151367188	148.8587646484375	66.01300811767578	-304.049560546875	132.4573974609375	55.18933868408203	-250.6844329833984	-613.4027099609375	418.2317199707031	-390.78515625
167	0.83	46.17176818847656	1448.134155273438	-484.8200378417969	-30.77717590332031	1450.842041015625	-198.1932373046875	-24.10586929321289	999.7428588867188	-479.431640625	-2.426049947738647	1008.981628417969	-203.6839904785156	14.99380779266357	948.9580078125	-456.830810546875	-558.696533203125	420.9478454589844	-363.7914428710938	27.28554344177246	968.4256591796876	-224.9044799804688	-131.732666015625	890.5850830078125	-494.4013366699219	-96.17646026611328	880.6822509765625	-163.8748321533203	-148.2636871337891	996.0224609375	-377.0206298828125	-121.1757736206055	659.4111328125	-503.9955139160156	-403.0293273925781	472.3539428710938	-454.5040588378906	-193.5157165527344	677.4833374023438	-473.0107421875	-136.6487426757812	561.36865234375	-489.0617065429688	307.629638671875	120.9263916015625	-183.4282684326172	-313.9290466308594	510.5872497558594	-477.9054260253906	-211.5578460693359	580.905517578125	-462.8409729003906	92.53490447998048	701.0098876953125	-168.6449890136719	-598.4638671875	165.6089019775391	-389.8193664550781	17.77480697631836	676.0615234375	-157.1306610107422	123.2578277587891	610.7159423828125	-202.7390899658203	45.94304275512695	581.1607055664062	-181.6941986083984	-203.5570526123047	514.5661010742188	-482.1932373046875	94.3098602294922	523.5781860351562	-190.8565521240234	-280.7851257324219	433.8581237792969	-478.249267578125	-373.854736328125	396.6258544921875	-460.322998046875	144.4252777099609	410.5831298828125	-186.6494445800781	-623.1361083984375	236.7354583740234	-445.6844787597656	61.54693603515625	388.7003173828125	-188.19482421875	-581.8548583984375	411.2341918945312	-336.3573303222656	164.9456176757812	309.6148071289062	-198.2562713623047	87.43757629394531	295.9280395507812	-198.60107421875	-547.8956909179688	369.6712646484375	-430.8371276855469	169.9416656494141	128.0196228027344	-216.5094146728516	372.2118530273438	177.3374633789062	-235.9412536621094	132.0820922851562	78.18006134033203	-274.7533264160156	160.8258972167969	61.18876266479492	-303.8387145996094	144.4049682617188	51.36789321899414	-249.5716552734375	-593.9960327148438	421.9720153808594	-390.5225524902344
